<svg width="44" height="54" viewBox="0 0 44 54" fill="none" xmlns="http://www.w3.org/2000/svg">
<path d="M10.2956 30.5195H8.42529V33.4682H10.2956C11.1085 33.4682 11.7699 32.8068 11.7699 31.9939C11.7699 31.1809 11.1085 30.5195 10.2956 30.5195Z" fill="#CBAA65"/>
<path d="M43.797 23.7109H0.203125V44.6433H43.7968V23.7109H43.797ZM10.2956 36.6331H8.42536V41.1639H5.2613V27.3563H10.2956C12.8533 27.3563 14.9341 29.437 14.9341 31.9947C14.9341 34.5523 12.8533 36.6331 10.2956 36.6331ZM27.0841 36.472C27.0841 39.0345 24.9993 41.1193 22.4368 41.1193H17.4113V27.3563H22.4368C24.9993 27.3563 27.0841 29.4411 27.0841 32.0035V36.472ZM38.5323 30.5203H33.0493V33.469H37.4072V36.6331H33.0493V41.1639H29.8852V27.3563H38.5323V30.5203Z" fill="#CBAA65"/>
<path d="M22.4366 30.5195H20.5752V37.9544H22.4366C23.2544 37.9544 23.9198 37.289 23.9198 36.4712V32.0027C23.9198 31.1849 23.2544 30.5195 22.4366 30.5195Z" fill="#CBAA65"/>
<path d="M16.4629 14.6953H1.76074V20.5468H42.2392V0H16.4629V14.6953Z" fill="white"/>
<path d="M1.76074 47.8066H42.2392V53.9993H1.76074V47.8066Z" fill="white"/>
<path d="M2.27881 11.5316H13.2987V0.511719L2.27881 11.5316Z" fill="#CBAA65"/>
</svg>
