<svg display="none" xmlns="http://www.w3.org/2000/svg">

    <symbol id="location-icon" viewBox="0 0 24 24">
        <path
            d="M18.364 17.364L12 23.7279L5.63604 17.364C2.12132 13.8492 2.12132 8.15076 5.63604 4.63604C9.15076 1.12132 14.8492 1.12132 18.364 4.63604C21.8787 8.15076 21.8787 13.8492 18.364 17.364ZM12 13C13.1046 13 14 12.1046 14 11C14 9.89543 13.1046 9 12 9C10.8954 9 10 9.89543 10 11C10 12.1046 10.8954 13 12 13Z" />
    </symbol>

    <symbol id="phone-icon" viewBox="0 0 24 24">
        <path
            d="M21 16.42V19.9561C21 20.4811 20.5941 20.9167 20.0705 20.9537C19.6331 20.9846 19.2763 21 19 21C10.1634 21 3 13.8366 3 5C3 4.72371 3.01545 4.36687 3.04635 3.9295C3.08337 3.40588 3.51894 3 4.04386 3H7.5801C7.83678 3 8.05176 3.19442 8.07753 3.4498C8.10067 3.67907 8.12218 3.86314 8.14207 4.00202C8.34435 5.41472 8.75753 6.75936 9.3487 8.00303C9.44359 8.20265 9.38171 8.44159 9.20185 8.57006L7.04355 10.1118C8.35752 13.1811 10.8189 15.6425 13.8882 16.9565L15.4271 14.8019C15.5572 14.6199 15.799 14.5573 16.001 14.6532C17.2446 15.2439 18.5891 15.6566 20.0016 15.8584C20.1396 15.8782 20.3225 15.8995 20.5502 15.9225C20.8056 15.9483 21 16.1633 21 16.42Z" />
    </symbol>

    <symbol id="mail-icon" viewBox="0 0 24 24">
        <path
            d="M3 3H21C21.5523 3 22 3.44772 22 4V20C22 20.5523 21.5523 21 21 21H3C2.44772 21 2 20.5523 2 20V4C2 3.44772 2.44772 3 3 3ZM12.0606 11.6829L5.64722 6.2377L4.35278 7.7623L12.0731 14.3171L19.6544 7.75616L18.3456 6.24384L12.0606 11.6829Z" />
    </symbol>


    <symbol id="arrow-left" viewBox="0 0 30 30">
        <path
            d="M27.5004 16.2502L27.5005 13.7504H7.28556L12.2227 8.81317L10.4549 7.04541L2.5 15.0004L10.4549 22.9554L12.2227 21.1875L7.2855 16.2504L27.5004 16.2502Z" />
    </symbol>

    <symbol id="arrow-right" viewBox="0 0 30 30">
        <path
            d="M2.50012 13.7507L2.49999 16.2506L22.7149 16.2506L17.7778 21.1878L19.5455 22.9556L27.5005 15.0006L19.5455 7.0456L17.7778 8.81348L22.715 13.7506L2.50012 13.7507Z" />
    </symbol>

    <symbol id="whatsapp-icon" viewBox="0 0 18 18">
        <path
            d="M8.92238 0.744141C13.439 0.744141 17.1004 4.40559 17.1004 8.92214C17.1004 13.4387 13.439 17.1001 8.92238 17.1001C7.42265 17.1001 6.01712 16.6965 4.80874 15.9918L0.747765 17.1001L1.85342 13.0369C1.14838 11.8283 0.744385 10.4224 0.744385 8.92214C0.744385 4.40559 4.40584 0.744141 8.92238 0.744141ZM5.97121 5.08524C5.86545 5.09276 5.76164 5.11861 5.66722 5.16691C5.59633 5.20311 5.53059 5.25557 5.42722 5.35315C5.32962 5.44529 5.27303 5.52576 5.21339 5.6034C4.91113 5.99703 4.74856 6.48019 4.75161 6.97655C4.75324 7.3778 4.85748 7.76773 5.02202 8.13182C5.35579 8.87013 5.90623 9.65064 6.63331 10.3744C6.80799 10.5484 6.97907 10.7241 7.16357 10.8865C8.06598 11.6811 9.14145 12.254 10.3042 12.5599C10.3042 12.5599 10.7622 12.6302 10.7689 12.6306C10.9206 12.6387 11.0721 12.6278 11.2239 12.62C11.4621 12.6078 11.6947 12.5433 11.9053 12.4313C12.0406 12.3591 12.1046 12.3234 12.2182 12.2517C12.2182 12.2517 12.253 12.2281 12.3203 12.1781C12.4306 12.0959 12.4989 12.038 12.5907 11.9427C12.6584 11.8723 12.7167 11.7892 12.7617 11.6956C12.8255 11.5621 12.8899 11.3073 12.9155 11.0957C12.9351 10.9341 12.9292 10.8458 12.9271 10.7912C12.9236 10.7032 12.8509 10.6126 12.7712 10.5742L12.2956 10.3604C12.2956 10.3604 11.5846 10.0509 11.1496 9.85257C11.1044 9.83186 11.0548 9.82226 11.005 9.81932C10.8959 9.81257 10.7737 9.84102 10.6959 9.92291C10.6918 9.92138 10.6377 9.96805 10.0459 10.6849C10.0133 10.7239 9.93689 10.8087 9.80463 10.8008C9.78467 10.7994 9.76483 10.7965 9.74542 10.7914C9.69188 10.7774 9.63965 10.7587 9.58862 10.7371C9.48754 10.6941 9.45199 10.6779 9.38286 10.6481C8.91083 10.4418 8.4775 10.166 8.09455 9.82826C7.99183 9.73776 7.89631 9.64039 7.79785 9.54498C7.45416 9.21186 7.17283 8.85759 6.96359 8.50812C6.95214 8.48915 6.93458 8.46156 6.91561 8.43069C6.88138 8.37509 6.84354 8.30879 6.83176 8.26332C6.80134 8.14305 6.88203 8.04633 6.88203 8.04633C6.88203 8.04633 7.08102 7.8288 7.17349 7.71038C7.26247 7.59654 7.33934 7.48511 7.3882 7.40573C7.48458 7.25078 7.515 7.09081 7.46441 6.96727C7.23499 6.4079 6.99827 5.85157 6.75434 5.29842C6.70614 5.18927 6.56287 5.10989 6.43267 5.09495C6.38851 5.08982 6.34446 5.0847 6.30019 5.08176C6.19061 5.07641 6.08069 5.07761 5.97121 5.08524Z" />
    </symbol>

    <symbol id="telegram-icon" viewBox="0 0 18 15">
        <path fill-rule="evenodd" clip-rule="evenodd"
            d="M1.42128 6.4177C5.99473 4.3139 9.04444 2.92694 10.5703 2.25679C14.9271 0.343478 15.8324 0.0110184 16.4225 0.000114378C16.5524 -0.00227088 16.8425 0.031691 17.0305 0.192639C17.1891 0.328599 17.2328 0.512376 17.2538 0.641294C17.2746 0.770211 17.3006 1.06383 17.2799 1.29338C17.0439 3.9125 16.0224 10.2686 15.5026 13.2021C15.2826 14.4435 14.8496 14.8596 14.4304 14.9005C13.5194 14.989 12.8276 14.2648 11.9451 13.654C10.5644 12.6983 9.78433 12.1035 8.44404 11.171C6.8951 10.0933 7.89918 9.50093 8.78195 8.53285C9.01298 8.27956 13.027 4.42454 13.1048 4.07481C13.1145 4.03109 13.1235 3.86798 13.0318 3.78199C12.94 3.6959 12.8046 3.72531 12.707 3.74871C12.5685 3.78188 10.3627 5.32128 6.08945 8.3668C5.46338 8.82079 4.89625 9.04194 4.3882 9.03035C3.828 9.01751 2.75055 8.69596 1.94944 8.42098C0.966944 8.08386 0.186136 7.90553 0.254127 7.33284C0.289543 7.03458 0.67859 6.72949 1.42128 6.4177Z" />
    </symbol>

    <symbol id="vk-icon" viewBox="0 0 18 18">
        <path
            d="M1.26 1.26C2.38419e-07 2.532 0 4.566 0 8.64V9.36C0 13.428 2.38419e-07 15.462 1.26 16.74C2.532 18 4.566 18 8.64 18H9.36C13.428 18 15.462 18 16.74 16.74C18 15.468 18 13.434 18 9.36V8.64C18 4.572 18 2.538 16.74 1.26C15.468 2.38419e-07 13.434 0 9.36 0H8.64C4.572 0 2.538 2.38419e-07 1.26 1.26ZM3.03613 5.47817H5.10013C5.16613 8.9102 6.67813 10.3622 7.8781 10.6622V5.47817H9.8161V8.4362C10.9981 8.3102 12.2461 6.96017 12.6661 5.47217H14.5981C14.4406 6.24243 14.1259 6.97193 13.6737 7.6151C13.2216 8.2582 12.6416 8.8012 11.9701 9.2102C12.7195 9.5831 13.3813 10.1107 13.9118 10.7582C14.4424 11.4056 14.8297 12.1581 15.0481 12.9662H12.9181C12.4621 11.5442 11.3221 10.4402 9.8161 10.2902V12.9662H9.5821H9.5761C5.47213 12.9662 3.13213 10.1582 3.03613 5.47817Z" />
    </symbol>

    <symbol id="burger-icon" viewBox="0 0 25 18">
        <path d="M1.5 1H23.5" stroke-width="1.5" stroke-linecap="round" />
        <path d="M1.5 9H23.5" stroke-width="1.5" stroke-linecap="round" />
        <path d="M1.5 17H23.5" stroke-width="1.5" stroke-linecap="round" />
    </symbol>

</svg>