<svg display="none" xmlns="http://www.w3.org/2000/svg">

    <symbol id="location-icon" viewBox="0 0 24 24">
        <path
            d="M18.364 17.364L12 23.7279L5.63604 17.364C2.12132 13.8492 2.12132 8.15076 5.63604 4.63604C9.15076 1.12132 14.8492 1.12132 18.364 4.63604C21.8787 8.15076 21.8787 13.8492 18.364 17.364ZM12 13C13.1046 13 14 12.1046 14 11C14 9.89543 13.1046 9 12 9C10.8954 9 10 9.89543 10 11C10 12.1046 10.8954 13 12 13Z" />
    </symbol>

    <symbol id="phone-icon" viewBox="0 0 24 24">
        <path
            d="M21 16.42V19.9561C21 20.4811 20.5941 20.9167 20.0705 20.9537C19.6331 20.9846 19.2763 21 19 21C10.1634 21 3 13.8366 3 5C3 4.72371 3.01545 4.36687 3.04635 3.9295C3.08337 3.40588 3.51894 3 4.04386 3H7.5801C7.83678 3 8.05176 3.19442 8.07753 3.4498C8.10067 3.67907 8.12218 3.86314 8.14207 4.00202C8.34435 5.41472 8.75753 6.75936 9.3487 8.00303C9.44359 8.20265 9.38171 8.44159 9.20185 8.57006L7.04355 10.1118C8.35752 13.1811 10.8189 15.6425 13.8882 16.9565L15.4271 14.8019C15.5572 14.6199 15.799 14.5573 16.001 14.6532C17.2446 15.2439 18.5891 15.6566 20.0016 15.8584C20.1396 15.8782 20.3225 15.8995 20.5502 15.9225C20.8056 15.9483 21 16.1633 21 16.42Z" />
    </symbol>

    <symbol id="mail-icon" viewBox="0 0 24 24">
        <path
            d="M3 3H21C21.5523 3 22 3.44772 22 4V20C22 20.5523 21.5523 21 21 21H3C2.44772 21 2 20.5523 2 20V4C2 3.44772 2.44772 3 3 3ZM12.0606 11.6829L5.64722 6.2377L4.35278 7.7623L12.0731 14.3171L19.6544 7.75616L18.3456 6.24384L12.0606 11.6829Z" />
    </symbol>


    <symbol id="arrow-left" viewBox="0 0 30 30">
        <path
            d="M27.5004 16.2502L27.5005 13.7504H7.28556L12.2227 8.81317L10.4549 7.04541L2.5 15.0004L10.4549 22.9554L12.2227 21.1875L7.2855 16.2504L27.5004 16.2502Z" />
    </symbol>

    <symbol id="arrow-right" viewBox="0 0 30 30">
        <path
            d="M2.50012 13.7507L2.49999 16.2506L22.7149 16.2506L17.7778 21.1878L19.5455 22.9556L27.5005 15.0006L19.5455 7.0456L17.7778 8.81348L22.715 13.7506L2.50012 13.7507Z" />
    </symbol>

    <symbol id="whatsapp-icon" viewBox="0 0 18 18">
        <path
            d="M8.92238 0.744141C13.439 0.744141 17.1004 4.40559 17.1004 8.92214C17.1004 13.4387 13.439 17.1001 8.92238 17.1001C7.42265 17.1001 6.01712 16.6965 4.80874 15.9918L0.747765 17.1001L1.85342 13.0369C1.14838 11.8283 0.744385 10.4224 0.744385 8.92214C0.744385 4.40559 4.40584 0.744141 8.92238 0.744141ZM5.97121 5.08524C5.86545 5.09276 5.76164 5.11861 5.66722 5.16691C5.59633 5.20311 5.53059 5.25557 5.42722 5.35315C5.32962 5.44529 5.27303 5.52576 5.21339 5.6034C4.91113 5.99703 4.74856 6.48019 4.75161 6.97655C4.75324 7.3778 4.85748 7.76773 5.02202 8.13182C5.35579 8.87013 5.90623 9.65064 6.63331 10.3744C6.80799 10.5484 6.97907 10.7241 7.16357 10.8865C8.06598 11.6811 9.14145 12.254 10.3042 12.5599C10.3042 12.5599 10.7622 12.6302 10.7689 12.6306C10.9206 12.6387 11.0721 12.6278 11.2239 12.62C11.4621 12.6078 11.6947 12.5433 11.9053 12.4313C12.0406 12.3591 12.1046 12.3234 12.2182 12.2517C12.2182 12.2517 12.253 12.2281 12.3203 12.1781C12.4306 12.0959 12.4989 12.038 12.5907 11.9427C12.6584 11.8723 12.7167 11.7892 12.7617 11.6956C12.8255 11.5621 12.8899 11.3073 12.9155 11.0957C12.9351 10.9341 12.9292 10.8458 12.9271 10.7912C12.9236 10.7032 12.8509 10.6126 12.7712 10.5742L12.2956 10.3604C12.2956 10.3604 11.5846 10.0509 11.1496 9.85257C11.1044 9.83186 11.0548 9.82226 11.005 9.81932C10.8959 9.81257 10.7737 9.84102 10.6959 9.92291C10.6918 9.92138 10.6377 9.96805 10.0459 10.6849C10.0133 10.7239 9.93689 10.8087 9.80463 10.8008C9.78467 10.7994 9.76483 10.7965 9.74542 10.7914C9.69188 10.7774 9.63965 10.7587 9.58862 10.7371C9.48754 10.6941 9.45199 10.6779 9.38286 10.6481C8.91083 10.4418 8.4775 10.166 8.09455 9.82826C7.99183 9.73776 7.89631 9.64039 7.79785 9.54498C7.45416 9.21186 7.17283 8.85759 6.96359 8.50812C6.95214 8.48915 6.93458 8.46156 6.91561 8.43069C6.88138 8.37509 6.84354 8.30879 6.83176 8.26332C6.80134 8.14305 6.88203 8.04633 6.88203 8.04633C6.88203 8.04633 7.08102 7.8288 7.17349 7.71038C7.26247 7.59654 7.33934 7.48511 7.3882 7.40573C7.48458 7.25078 7.515 7.09081 7.46441 6.96727C7.23499 6.4079 6.99827 5.85157 6.75434 5.29842C6.70614 5.18927 6.56287 5.10989 6.43267 5.09495C6.38851 5.08982 6.34446 5.0847 6.30019 5.08176C6.19061 5.07641 6.08069 5.07761 5.97121 5.08524Z" />
    </symbol>

    <symbol id="telegram-icon" viewBox="0 0 18 15">
        <path fill-rule="evenodd" clip-rule="evenodd"
            d="M1.42128 6.4177C5.99473 4.3139 9.04444 2.92694 10.5703 2.25679C14.9271 0.343478 15.8324 0.0110184 16.4225 0.000114378C16.5524 -0.00227088 16.8425 0.031691 17.0305 0.192639C17.1891 0.328599 17.2328 0.512376 17.2538 0.641294C17.2746 0.770211 17.3006 1.06383 17.2799 1.29338C17.0439 3.9125 16.0224 10.2686 15.5026 13.2021C15.2826 14.4435 14.8496 14.8596 14.4304 14.9005C13.5194 14.989 12.8276 14.2648 11.9451 13.654C10.5644 12.6983 9.78433 12.1035 8.44404 11.171C6.8951 10.0933 7.89918 9.50093 8.78195 8.53285C9.01298 8.27956 13.027 4.42454 13.1048 4.07481C13.1145 4.03109 13.1235 3.86798 13.0318 3.78199C12.94 3.6959 12.8046 3.72531 12.707 3.74871C12.5685 3.78188 10.3627 5.32128 6.08945 8.3668C5.46338 8.82079 4.89625 9.04194 4.3882 9.03035C3.828 9.01751 2.75055 8.69596 1.94944 8.42098C0.966944 8.08386 0.186136 7.90553 0.254127 7.33284C0.289543 7.03458 0.67859 6.72949 1.42128 6.4177Z" />
    </symbol>

    <symbol id="vk-icon" viewBox="0 0 18 18">
        <path
            d="M1.26 1.26C2.38419e-07 2.532 0 4.566 0 8.64V9.36C0 13.428 2.38419e-07 15.462 1.26 16.74C2.532 18 4.566 18 8.64 18H9.36C13.428 18 15.462 18 16.74 16.74C18 15.468 18 13.434 18 9.36V8.64C18 4.572 18 2.538 16.74 1.26C15.468 2.38419e-07 13.434 0 9.36 0H8.64C4.572 0 2.538 2.38419e-07 1.26 1.26ZM3.03613 5.47817H5.10013C5.16613 8.9102 6.67813 10.3622 7.8781 10.6622V5.47817H9.8161V8.4362C10.9981 8.3102 12.2461 6.96017 12.6661 5.47217H14.5981C14.4406 6.24243 14.1259 6.97193 13.6737 7.6151C13.2216 8.2582 12.6416 8.8012 11.9701 9.2102C12.7195 9.5831 13.3813 10.1107 13.9118 10.7582C14.4424 11.4056 14.8297 12.1581 15.0481 12.9662H12.9181C12.4621 11.5442 11.3221 10.4402 9.8161 10.2902V12.9662H9.5821H9.5761C5.47213 12.9662 3.13213 10.1582 3.03613 5.47817Z" />
    </symbol>

    <symbol id="burger-icon" viewBox="0 0 25 18">
        <path d="M1.5 1H23.5" stroke-width="1.5" stroke-linecap="round" />
        <path d="M1.5 9H23.5" stroke-width="1.5" stroke-linecap="round" />
        <path d="M1.5 17H23.5" stroke-width="1.5" stroke-linecap="round" />
    </symbol>

    <symbol id="user-icon" viewBox="0 0 24 24">
        <path
            d="M4 22C4 17.5817 7.58172 14 12 14C16.4183 14 20 17.5817 20 22H18C18 18.6863 15.3137 16 12 16C8.68629 16 6 18.6863 6 22H4ZM12 13C8.685 13 6 10.315 6 7C6 3.685 8.685 1 12 1C15.315 1 18 3.685 18 7C18 10.315 15.315 13 12 13ZM12 11C14.21 11 16 9.21 16 7C16 4.79 14.21 3 12 3C9.79 3 8 4.79 8 7C8 9.21 9.79 11 12 11Z" />
    </symbol>


    <symbol id="basket-icon" viewBox="0 0 24 24">
        <path
            d="M4.00488 16V4H2.00488V2H5.00488C5.55717 2 6.00488 2.44772 6.00488 3V15H18.4433L20.4433 7H8.00488V5H21.7241C22.2764 5 22.7241 5.44772 22.7241 6C22.7241 6.08176 22.7141 6.16322 22.6942 6.24254L20.1942 16.2425C20.083 16.6877 19.683 17 19.2241 17H5.00488C4.4526 17 4.00488 16.5523 4.00488 16ZM6.00488 23C4.90031 23 4.00488 22.1046 4.00488 21C4.00488 19.8954 4.90031 19 6.00488 19C7.10945 19 8.00488 19.8954 8.00488 21C8.00488 22.1046 7.10945 23 6.00488 23ZM18.0049 23C16.9003 23 16.0049 22.1046 16.0049 21C16.0049 19.8954 16.9003 19 18.0049 19C19.1095 19 20.0049 19.8954 20.0049 21C20.0049 22.1046 19.1095 23 18.0049 23Z" />
    </symbol>

    <symbol id="favorite-icon" viewBox="0 0 24 24">
        <path
            d="M12.001 4.52853C14.35 2.42 17.98 2.49 20.2426 4.75736C22.5053 7.02472 22.583 10.637 20.4786 12.993L11.9999 21.485L3.52138 12.993C1.41705 10.637 1.49571 7.01901 3.75736 4.75736C6.02157 2.49315 9.64519 2.41687 12.001 4.52853ZM18.827 6.1701C17.3279 4.66794 14.9076 4.60701 13.337 6.01687L12.0019 7.21524L10.6661 6.01781C9.09098 4.60597 6.67506 4.66808 5.17157 6.17157C3.68183 7.66131 3.60704 10.0473 4.97993 11.6232L11.9999 18.6543L19.0201 11.6232C20.3935 10.0467 20.319 7.66525 18.827 6.1701Z" />
    </symbol>

    <symbol id="search-icon" viewBox="0 0 24 24">
        <path
            d="M18.031 16.6168L22.3137 20.8995L20.8995 22.3137L16.6168 18.031C15.0769 19.263 13.124 20 11 20C6.032 20 2 15.968 2 11C2 6.032 6.032 2 11 2C15.968 2 20 6.032 20 11C20 13.124 19.263 15.0769 18.031 16.6168ZM16.0247 15.8748C17.2475 14.6146 18 12.8956 18 11C18 7.1325 14.8675 4 11 4C7.1325 4 4 7.1325 4 11C4 14.8675 7.1325 18 11 18C12.8956 18 14.6146 17.2475 15.8748 16.0247L16.0247 15.8748Z" />
    </symbol>

    <symbol id="close-icon" viewBox="0 0 32 32">
        <path d="M8.22168 23.7782L23.778 8.22182" stroke-width="1.5" stroke-linecap="round" />
        <path d="M23.7783 23.7782L8.22197 8.22182" stroke-width="1.5" stroke-linecap="round" />
    </symbol>


    <symbol id="prev-arrow" viewBox="0 0 18 18">
        <path
            d="M8.20372 9.08305L11.916 12.7954L10.8554 13.8561L6.08235 9.08305L10.8554 4.31012L11.916 5.37078L8.20372 9.08305Z" />
    </symbol>

    <symbol id="prev" viewBox="0 0 9 12">
        <path d="M8 1L2 5.375L8 11" stroke-width="1.5" stroke-linecap="round" />
    </symbol>
    <symbol id="next" viewBox="0 0 9 12">
        <path d="M1 11L7 6.625L1 1" stroke-width="1.5" stroke-linecap="round" />
    </symbol>


    <symbol id='arrow-diagonal' viewBox="0 0 26 26">
        <path
            d="M4.57384 19.8948L6.10575 21.4268L18.494 9.03859L18.494 15.0898H20.6607L20.6607 5.33984L10.9106 5.33981L10.9107 7.50654L16.962 7.50648L4.57384 19.8948Z" />
    </symbol>

    <symbol id="arrow-bottom" viewBox="0 0 24 24">
        <path
            d="M11.9997 13.1724L16.9495 8.22266L18.3637 9.63687L11.9997 16.0009L5.63574 9.63687L7.04995 8.22266L11.9997 13.1724Z" />
    </symbol>


    <symbol id="chat-icon" viewBox="0 0 24 24">
        <g>
            <path
                d="M14.4954 15.5841L11.9974 19.167L9.58186 15.5841H3.58139C2.78836 15.5841 2.03855 15.396 1.37377 15.0625C0.538266 15.7187 0 16.7371 0 17.8794C0 19.8542 1.60659 21.4608 3.58139 21.4608H4.24256V23.9993L7.72373 21.4608H20.4186C22.3934 21.4608 24 19.8542 24 17.8794C24 16.7371 23.4617 15.7187 22.6262 15.0625C21.9614 15.396 21.2116 15.5841 20.4186 15.5841H14.4954Z" />
            <path
                d="M22.7554 7.93359C22.2545 8.20364 21.7021 8.38997 21.1169 8.47308V12.3749L15.8333 8.52225H3.58139C2.73661 8.52225 1.94072 8.30897 1.24453 7.93364C0.483234 8.59087 0 9.5618 0 10.6441C0 12.6189 1.60659 14.2255 3.58139 14.2255H10.3049L12.0163 16.764L13.786 14.2255H20.4186C22.3934 14.2255 24 12.6189 24 10.6441C24 9.5618 23.5167 8.59083 22.7554 7.93359Z" />
            <path
                d="M3.58139 7.16278H16.2763L19.7574 9.7012V7.16278H20.4186C22.3934 7.16278 24 5.55614 24 3.58134C24 1.60659 22.3934 0 20.4186 0H3.58139C1.60659 0 0 1.60659 0 3.58134C0 5.55614 1.60659 7.16278 3.58139 7.16278Z" />
        </g>
    </symbol>

    <symbol id='star-icon' viewBox="0 0 20 20">
        <path
            d="M10.0003 15.218L4.12246 18.5081L5.43524 11.9012L0.489746 7.3278L7.17895 6.53469L10.0003 0.417969L12.8217 6.53469L19.5108 7.3278L14.5654 11.9012L15.8782 18.5081L10.0003 15.218Z" />
    </symbol>



    <symbol id="close-filter-icon" viewBox="0 0 18 18">
        <path
            d="M7.93942 8.99911L2.09473 3.15441L3.15538 2.09375L9.00007 7.93839L14.8447 2.09375L15.9054 3.15441L10.0607 8.99911L15.9054 14.8437L14.8447 15.9044L9.00007 10.0598L3.15538 15.9044L2.09473 14.8437L7.93942 8.99911Z" />
    </symbol>

    <symbol id="filter-icon" viewBox="0 0 22 22">
        <path
            d="M6.41667 2.75V5.5H2.75V7.33333H6.41667V10.0833H8.25V2.75H6.41667ZM10.0833 7.33333H19.25V5.5H10.0833V7.33333ZM15.5833 11.9167V14.6667H19.25V16.5H15.5833V19.25H13.75V11.9167H15.5833ZM11.9167 16.5H2.75V14.6667H11.9167V16.5Z" />
    </symbol>

    <symbol id="sorting-icon" viewBox="0 0 18 18">
        <path
            d="M8.96223 5.96231L7.90158 7.02297L6.00047 5.121L5.99991 15H4.49991L4.50047 5.121L2.59826 7.02297L1.5376 5.96231L5.24991 2.25L8.96223 5.96231ZM16.4622 12.0377L12.7499 15.75L9.03761 12.0377L10.0983 10.977L12.0005 12.879L11.9999 3H13.4999L13.5005 12.879L15.4016 10.977L16.4622 12.0377Z" />
    </symbol>

    <symbol id="plus-icon" viewBox="0 0 24 24">
        <path d="M11 11V5H13V11H19V13H13V19H11V13H5V11H11Z" />
    </symbol>

    <symbol id="minus-icon" viewBox="0 0 24 24">
        <g>
            <path d="M5 11V13H19V11H5Z"/>
        </g>
    </symbol>

</svg>